<svg xmlns="http://www.w3.org/2000/svg" xmlns:xlink="http://www.w3.org/1999/xlink" viewBox="0 0 321.13 250.49"><defs><clipPath id="clip-path" transform="translate(0 0)"><rect width="321.13" height="250.49" fill="none"/></clipPath><clipPath id="clip-path-3" transform="translate(0 0)"><rect width="321.13" height="250.49" fill="none"/></clipPath></defs><title>Asset 3</title><g id="Layer_2" data-name="Layer 2"><g id="Layer_2-2" data-name="Layer 2"><g id="Artwork_2" data-name="Artwork 2"><g clip-path="url(#clip-path)"><g clip-path="url(#clip-path)"><g clip-path="url(#clip-path-3)"><g opacity="0.6"><g clip-path="url(#clip-path)"><path d="M176.54,16.11a16,16,0,1,1-16-16,16,16,0,0,1,16,16" transform="translate(0 0)" fill="#fff"/><path d="M176.54,16.11a16,16,0,1,1-16-16A16,16,0,0,1,176.54,16.11Z" transform="translate(0 0)" fill="none" stroke="#fff" stroke-miterlimit="10" stroke-width="0.27"/><path d="M104.31,16.11a16,16,0,1,1-16-16,16,16,0,0,1,16,16" transform="translate(0 0)" fill="#fff"/><path d="M104.31,16.11a16,16,0,1,1-16-16A16,16,0,0,1,104.31,16.11Z" transform="translate(0 0)" fill="none" stroke="#fff" stroke-miterlimit="10" stroke-width="0.27"/><path d="M32.08,16.11a16,16,0,1,1-16-16,16,16,0,0,1,16,16" transform="translate(0 0)" fill="#fff"/><path d="M32.08,16.11a16,16,0,1,1-16-16A16,16,0,0,1,32.08,16.11Z" transform="translate(0 0)" fill="none" stroke="#fff" stroke-miterlimit="10" stroke-width="0.27"/><path d="M248.76,70.68a16,16,0,1,1-16-16,16,16,0,0,1,16,16" transform="translate(0 0)" fill="#fff"/><path d="M248.76,70.68a16,16,0,1,1-16-16A16,16,0,0,1,248.76,70.68Z" transform="translate(0 0)" fill="none" stroke="#fff" stroke-miterlimit="10" stroke-width="0.27"/><path d="M176.54,70.68a16,16,0,1,1-16-16,16,16,0,0,1,16,16" transform="translate(0 0)" fill="#fff"/><path d="M176.54,70.68a16,16,0,1,1-16-16A16,16,0,0,1,176.54,70.68Z" transform="translate(0 0)" fill="none" stroke="#fff" stroke-miterlimit="10" stroke-width="0.27"/><path d="M104.31,70.68a16,16,0,1,1-16-16,16,16,0,0,1,16,16" transform="translate(0 0)" fill="#fff"/><path d="M104.31,70.68a16,16,0,1,1-16-16A16,16,0,0,1,104.31,70.68Z" transform="translate(0 0)" fill="none" stroke="#fff" stroke-miterlimit="10" stroke-width="0.27"/><path d="M321,125.24a16,16,0,1,1-16-16,16,16,0,0,1,16,16" transform="translate(0 0)" fill="#fff"/><path d="M321,125.24a16,16,0,1,1-16-16A16,16,0,0,1,321,125.24Z" transform="translate(0 0)" fill="none" stroke="#fff" stroke-miterlimit="10" stroke-width="0.27"/><path d="M248.76,125.24a16,16,0,1,1-16-16,16,16,0,0,1,16,16" transform="translate(0 0)" fill="#fff"/><path d="M248.76,125.24a16,16,0,1,1-16-16A16,16,0,0,1,248.76,125.24Z" transform="translate(0 0)" fill="none" stroke="#fff" stroke-miterlimit="10" stroke-width="0.27"/><path d="M176.54,125.24a16,16,0,1,1-16-16,16,16,0,0,1,16,16" transform="translate(0 0)" fill="#fff"/><path d="M176.54,125.24a16,16,0,1,1-16-16A16,16,0,0,1,176.54,125.24Z" transform="translate(0 0)" fill="none" stroke="#fff" stroke-miterlimit="10" stroke-width="0.27"/><path d="M248.76,179.81a16,16,0,1,1-16-16,16,16,0,0,1,16,16" transform="translate(0 0)" fill="#fff"/><path d="M248.76,179.81a16,16,0,1,1-16-16A16,16,0,0,1,248.76,179.81Z" transform="translate(0 0)" fill="none" stroke="#fff" stroke-miterlimit="10" stroke-width="0.27"/><path d="M176.54,179.81a16,16,0,1,1-16-16,16,16,0,0,1,16,16" transform="translate(0 0)" fill="#fff"/><path d="M176.54,179.81a16,16,0,1,1-16-16A16,16,0,0,1,176.54,179.81Z" transform="translate(0 0)" fill="none" stroke="#fff" stroke-miterlimit="10" stroke-width="0.27"/><path d="M104.31,179.81a16,16,0,1,1-16-16,16,16,0,0,1,16,16" transform="translate(0 0)" fill="#fff"/><path d="M104.31,179.81a16,16,0,1,1-16-16A16,16,0,0,1,104.31,179.81Z" transform="translate(0 0)" fill="none" stroke="#fff" stroke-miterlimit="10" stroke-width="0.27"/><path d="M176.54,234.38a16,16,0,1,1-16-16,16,16,0,0,1,16,16" transform="translate(0 0)" fill="#fff"/><path d="M176.54,234.38a16,16,0,1,1-16-16A16,16,0,0,1,176.54,234.38Z" transform="translate(0 0)" fill="none" stroke="#fff" stroke-miterlimit="10" stroke-width="0.27"/><path d="M104.31,234.38a16,16,0,1,1-16-16,16,16,0,0,1,16,16" transform="translate(0 0)" fill="#fff"/><path d="M104.31,234.38a16,16,0,1,1-16-16A16,16,0,0,1,104.31,234.38Z" transform="translate(0 0)" fill="none" stroke="#fff" stroke-miterlimit="10" stroke-width="0.27"/><path d="M32.08,234.38a16,16,0,1,1-16-16,16,16,0,0,1,16,16" transform="translate(0 0)" fill="#fff"/><path d="M32.08,234.38a16,16,0,1,1-16-16A16,16,0,0,1,32.08,234.38Z" transform="translate(0 0)" fill="none" stroke="#fff" stroke-miterlimit="10" stroke-width="0.27"/></g></g></g></g></g></g></g></g></svg>