<svg xmlns="http://www.w3.org/2000/svg" xmlns:xlink="http://www.w3.org/1999/xlink" viewBox="0 0 992.48 818.59"><defs><clipPath id="clip-path"><path d="M921.15,568.89c-6.41,15.45-14.82,30.26-26.59,41.62-14.34,13.84-32.15,21.39-51.22,25a154.35,154.35,0,0,1-17,2.2c-15.07,1.16-30.5.39-45.3-1.22a536,536,0,0,1-106.7-22.83q-8.55-2.76-17-5.81-12.76-4.54-25.27-9.82c-34-14.21-69.15-32.33-105.32-26.71-17.53,2.73-34,11-51.57,13.46a92.19,92.19,0,0,1-36.84-2.62,126,126,0,0,1-17-5.87,193.37,193.37,0,0,1-35.32-20c-26.5-18.52-50.28-41.48-78.18-57.52-30.76-17.69-64.81-26.1-99.5-32.37q-8.47-1.53-17-2.92c-16.05-2.65-32.14-5.1-48-8-15.28-2.82-30.83-6.27-44.13-14.75-9.49-6.05-17.47-14.43-24.79-23.26A276.82,276.82,0,0,1,39.88,364.3q-.75-1.5-1.47-3c-14.69-30.14-24.57-63-30.63-97-.18-1-.35-2-.52-3C1.56,228-.52,193.51.11,159.3l.06-3c.39-16.89,1.44-33.71,3-50.29,1.12-11.66,2.62-23.76,8.66-33.56S27.73,56.3,37.58,51.08C80.88,28,122.39,21.59,169,32.77c7.48,1.79,14.93,3.72,22.38,5.72,5.67,1.52,11.34,3.09,17,4.67,39.13,10.91,78.16,22.52,118.61,26q5.87.51,11.73.78,11.61.54,23.22.24a400.6,400.6,0,0,0,59.44-6.12q8.52-1.47,17-3.26c24.4-5.09,48.58-11.88,72.37-19.39q7.29-2.29,14.56-4.68c10.92-3.57,21.84-7.21,32.78-10.75,32.65-10.59,65.52-20.26,99.28-24.16,2.89-.33,5.79-.62,8.68-.87s5.55-.43,8.32-.57c52.45-2.8,105.5,9.85,152,35.74q8.65,4.83,17,10.24,11.56,7.53,22.43,16.2c14.84,11.85,28.73,25.34,39.31,41.55,10.31,15.79,17,33.52,20.85,52.16.21,1,.41,2,.59,3,5.65,30.09,3.89,62.36-2.45,92.51-.67,3.16-1.38,6.33-2.12,9.49-.23,1-.47,2-.71,3-6.84,28.51-15.58,56.94-13.3,86.09.29,3.67.75,7.31,1.35,10.91.17,1,.34,2,.53,3,4.46,23.78,14.6,46.34,20.68,69.89A215.37,215.37,0,0,1,921.15,568.89Z" fill="none"/></clipPath></defs><title>lp-image</title><g id="Layer_2" data-name="Layer 2"><g id="Layer_1-2" data-name="Layer 1"><path d="M921.15,568.89c-6.41,15.45-14.82,30.26-26.59,41.62-14.34,13.84-32.15,21.39-51.22,25a154.35,154.35,0,0,1-17,2.2c-15.07,1.16-30.5.39-45.3-1.22a536,536,0,0,1-106.7-22.83q-8.55-2.76-17-5.81-12.76-4.54-25.27-9.82c-34-14.21-69.15-32.33-105.32-26.71-17.53,2.73-34,11-51.57,13.46a92.19,92.19,0,0,1-36.84-2.62,126,126,0,0,1-17-5.87,193.37,193.37,0,0,1-35.32-20c-26.5-18.52-50.28-41.48-78.18-57.52-30.76-17.69-64.81-26.1-99.5-32.37q-8.47-1.53-17-2.92c-16.05-2.65-32.14-5.1-48-8-15.28-2.82-30.83-6.27-44.13-14.75-9.49-6.05-17.47-14.43-24.79-23.26A276.82,276.82,0,0,1,39.88,364.3q-.75-1.5-1.47-3c-14.69-30.14-24.57-63-30.63-97-.18-1-.35-2-.52-3C1.56,228-.52,193.51.11,159.3l.06-3c.39-16.89,1.44-33.71,3-50.29,1.12-11.66,2.62-23.76,8.66-33.56S27.73,56.3,37.58,51.08C80.88,28,122.39,21.59,169,32.77c7.48,1.79,14.93,3.72,22.38,5.72,5.67,1.52,11.34,3.09,17,4.67,39.13,10.91,78.16,22.52,118.61,26q5.87.51,11.73.78,11.61.54,23.22.24a400.6,400.6,0,0,0,59.44-6.12q8.52-1.47,17-3.26c24.4-5.09,48.58-11.88,72.37-19.39q7.29-2.29,14.56-4.68c10.92-3.57,21.84-7.21,32.78-10.75,32.65-10.59,65.52-20.26,99.28-24.16,2.89-.33,5.79-.62,8.68-.87s5.55-.43,8.32-.57c52.45-2.8,105.5,9.85,152,35.74q8.65,4.83,17,10.24,11.56,7.53,22.43,16.2c14.84,11.85,28.73,25.34,39.31,41.55,10.31,15.79,17,33.52,20.85,52.16.21,1,.41,2,.59,3,5.65,30.09,3.89,62.36-2.45,92.51-.67,3.16-1.38,6.33-2.12,9.49-.23,1-.47,2-.71,3-6.84,28.51-15.58,56.94-13.3,86.09.29,3.67.75,7.31,1.35,10.91.17,1,.34,2,.53,3,4.46,23.78,14.6,46.34,20.68,69.89A215.37,215.37,0,0,1,921.15,568.89Z" fill="#048eae" opacity="0.1" style="isolation:isolate"/><g opacity="0.26"><g clip-path="url(#clip-path)"><g opacity="0.6"><polygon points="307.77 104.09 329.18 98.06 361.85 100.7 328.2 110.19 307.77 104.09" fill="#048eae"/><polygon points="307.77 104.09 329.18 98.06 361.85 100.7 328.2 110.19 307.77 104.09" opacity="0.2" style="isolation:isolate"/><path d="M255.35,119.2l30.6-8.64,16.68,4.52L427,80s18.87-3.34,19.57,3L286,128Z" fill="#048eae"/><path d="M431.74,94.83,298.17,132.49,286,128l161.1-45.42S451.11,89.37,431.74,94.83Z" fill="#048eae"/><path d="M431.74,94.83,298.17,132.49,286,128l161.1-45.42S451.11,89.37,431.74,94.83Z" opacity="0.2" style="isolation:isolate"/><polygon points="318.44 141.93 339.85 135.9 405.71 92.28 358.8 105.52 318.44 141.93" fill="#048eae"/></g><path d="M936.57,501.41c-4.59-1.63-9.46-3.12-14.25-2.29-8,1.4-13.64,9-16,16.79S904,532,902.49,540s-5.16,16.29-12.34,20.13-15.66,2.32-23.63,1.4a149.8,149.8,0,0,0-31.47-.29c-8.79.85-19.1,3.82-21.68,12.26-2.11,6.9,2.08,13.92,4.88,20.57,5.23,12.43,5.65,27.14-.34,39.23-6.09,12.3-18.1,21.1-23.16,33.85-1.28,3.24-2.09,6.83-1.22,10.2a18.48,18.48,0,0,0,3.63,6.58c4,5.12,8.72,9.63,12.34,15,7.55,11.2,9.6,25.16,10.48,38.64a282.57,282.57,0,0,1-.22,39.79c9.84-3.24,20.72-.35,30.86-2.44,21.59-4.45,35.07-30,57.06-31.56,10.4-.73,21.59,4.16,30.87-.6,4.52-2.32,7.73-6.65,9.88-11.26a39.83,39.83,0,0,0,2.39-26.7c-1.63-6.19-4.8-12.24-4.18-18.61.53-5.45,3.79-10.26,7.55-14.24,10.69-11.35,26.21-18.29,33.89-31.86,7.2-12.72,5.38-29.93-4.31-40.86-2.54-2.87-5.56-5.33-7.78-8.45-3.69-5.19-4.87-11.75-5.31-18.11-1-15.25,1.54-31.38-3.39-46.19C962.82,513,949.17,505.9,936.57,501.41Z" fill="#048eae" opacity="0.6" style="isolation:isolate"/><path d="M936.31,501.86S892.54,745,835.69,774" fill="none" stroke="#535461" stroke-miterlimit="10" opacity="0.6" style="isolation:isolate"/><path d="M814.52,569.15s46.88,6.44,93.72,54.59" fill="none" stroke="#535461" stroke-miterlimit="10" opacity="0.6" style="isolation:isolate"/><path d="M900,652s36.09-35.29,92.45-29.29" fill="none" stroke="#535461" stroke-miterlimit="10" opacity="0.6" style="isolation:isolate"/><path d="M793.93,667.31s65.84,5.59,90.22,30.88" fill="none" stroke="#535461" stroke-miterlimit="10" opacity="0.6" style="isolation:isolate"/><path d="M874.25,721.73s36.89-6.46,70.9,15.3" fill="none" stroke="#535461" stroke-miterlimit="10" opacity="0.6" style="isolation:isolate"/><path d="M224,597.56c2.86-1,5.9-1.95,8.89-1.43,5,.87,8.51,5.61,10,10.48s1.44,10,2.39,15,3.22,10.17,7.7,12.56,9.77,1.45,14.74.87a93.34,93.34,0,0,1,19.63-.18c5.48.53,11.92,2.38,13.53,7.65,1.32,4.3-1.3,8.69-3,12.84-3.26,7.76-3.52,16.93.21,24.47s11.29,13.16,14.45,21.12a10.5,10.5,0,0,1,.76,6.37,11.6,11.6,0,0,1-2.26,4.1c-2.48,3.19-5.44,6-7.7,9.36-4.71,7-6,15.7-6.54,24.11a175.87,175.87,0,0,0,.14,24.83c-6.14-2-12.92-.22-19.25-1.53-13.55-2.71-22-18.62-35.67-19.62-6.49-.46-13.47,2.6-19.26-.37a14.49,14.49,0,0,1-6.16-7,24.82,24.82,0,0,1-1.49-16.65c1-3.86,3-7.64,2.61-11.61-.33-3.4-2.37-6.4-4.71-8.89-6.67-7.08-16.35-11.41-21.14-19.88a22.65,22.65,0,0,1,2.69-25.49,63.74,63.74,0,0,0,4.85-5.27c2.3-3.24,3-7.33,3.31-11.3.66-9.51-1-19.58,2.11-28.82C207.65,604.84,216.17,600.4,224,597.56Z" fill="#048eae" opacity="0.6" style="isolation:isolate"/><path d="M224.19,597.88S251.5,749.56,287,767.64" fill="none" stroke="#535461" stroke-miterlimit="10" opacity="0.6" style="isolation:isolate"/><path d="M300.17,639.86s-29.25,4-58.47,34" fill="none" stroke="#535461" stroke-miterlimit="10" opacity="0.6" style="isolation:isolate"/><path d="M246.84,691.56s-22.51-22-57.68-18.27" fill="none" stroke="#535461" stroke-miterlimit="10" opacity="0.6" style="isolation:isolate"/><path d="M313,701.1s-41.07,3.46-56.29,19.26" fill="none" stroke="#535461" stroke-miterlimit="10" opacity="0.6" style="isolation:isolate"/><path d="M263,735.05s-23-4-44.23,9.55" fill="none" stroke="#535461" stroke-miterlimit="10" opacity="0.6" style="isolation:isolate"/><path d="M597.82,94.92c-3.38,0-7.13,0-9.7.2a12,12,0,0,0-3.36.69L567.41,102c14,.35,28.64.24,43,.13l80.54-.61c8.22-.06,16.85-.14,23.71-.63,4.59-.33,8-.81,12.2-1.19,15.25-1.36,37.49-1.1,57.35-1s43.84-.45,50.83-2.44H792.41c-4.6,0-9.42,0-13.48-.23-4.74-.27-7.64-.8-11.81-1.16-6.9-.59-16.42-.66-25.27-.7C693.28,94,645.29,95.17,597.82,94.92Z" fill="#f4f4f4"/><path d="M352.56,214.44c-1.16,0-2.46,0-3.35.06a5,5,0,0,0-1.16.2l-6,1.81c4.84.1,9.88.07,14.84,0l27.8-.18c2.84,0,5.81,0,8.18-.18,1.58-.1,2.75-.24,4.21-.35,5.26-.4,12.93-.32,19.78-.3s15.12-.13,17.54-.71H419.7c-1.59,0-3.25,0-4.65-.07-1.64-.08-2.63-.23-4.08-.34-2.38-.17-5.66-.19-8.72-.2C385.49,214.18,369,214.56,352.56,214.44Z" fill="#f4f4f4"/><path d="M712.55,195.74c-2,0-4.25,0-5.79.1a9,9,0,0,0-2,.35l-10.35,3.13c8.37.18,17.09.12,25.65.07l48.06-.31c4.9,0,10-.07,14.14-.32,2.74-.16,4.76-.41,7.28-.6,9.1-.68,22.36-.55,34.21-.52s26.15-.23,30.32-1.23H828.63c-2.74,0-5.62,0-8-.12-2.83-.14-4.55-.4-7-.58-4.11-.3-9.79-.33-15.07-.35C769.49,195.29,740.86,195.87,712.55,195.74Z" fill="#f4f4f4"/><path d="M185.05,773.08H150.2S139.31,392,185.05,274.34h8.71S163.27,705.56,185.05,773.08Z" fill="#048eae"/><path d="M161.09,254.74S132.78,333.14,145.84,368c0,0,19.6-71.87,42.47-82.76S235.14,368,235.14,368s13.07-58.8-10.89-106.72c0,0,47.91,26.13,71.87,76.23,0,0,4.36-32.67-52.27-100.18,0,0,50.09,13.07,82.76,43.56,0,0,10.89-24-56.63-63.16,0,0,8.71-28.31,61-15.25,0,0,0-37-82.76-30.49,0,0,0-24,54.45-19.6,0,0,0-30.49-63.16-19.6,0,0,13.07-19.6,21.78-24,0,0-17.42-2.18-30.49,8.71,0,0,2.18-39.2-30.49-54.45L196,117.56s-36.61-43.14-28.31-34.85c2.18,2.18,8.71,28.31,6.53,41.38,0,0-37-30.49-82.76,2.18,0,0,56.63,4.36,65.34,24,0,0-47.91-8.71-58.8-2.18,0,0,37,13.07,34.85,21.78,0,0-65.34,0-74,24,0,0,67.52,8.71,71.87,15.25,0,0-78.4,56.63-82.76,71.87,0,0,80.58-47.91,93.65-47.91s-58.8,69.69-54.45,87.12C87,320.08,145.84,250.39,161.09,254.74Z" fill="#048eae"/><g opacity="0.5"><path d="M750.69,711.9h26.09s8.2-285.34-26.09-373.45h-6.52S767,661.35,750.69,711.9Z" fill="#048eae"/><path d="M768.63,323.78s21.2,58.71,11.42,84.8c0,0-14.68-53.82-31.8-62s-35.06,62-35.06,62-9.78-44,8.15-79.91c0,0-35.88,19.57-53.82,57.08,0,0-3.26-24.46,39.14-75,0,0-37.51,9.78-62,32.62,0,0-8.15-17.94,42.4-47.29,0,0-6.52-21.2-45.66-11.42,0,0,0-27.72,62-22.83,0,0,0-17.94-40.77-14.68,0,0,0-22.83,47.29-14.68,0,0-9.78-14.68-16.31-17.94,0,0,13-1.63,22.83,6.52,0,0-1.63-29.35,22.83-40.77l3.26,40.77s27.41-32.3,21.2-26.09c-1.63,1.63-6.52,21.2-4.89,31,0,0,27.72-22.83,62,1.63,0,0-42.4,3.26-48.92,17.94,0,0,35.88-6.52,44-1.63,0,0-27.72,9.78-26.09,16.31,0,0,48.92,0,55.45,17.94,0,0-50.55,6.52-53.82,11.42,0,0,58.71,42.4,62,53.82,0,0-60.34-35.88-70.12-35.88s44,52.18,40.77,65.23C824.08,372.7,780.05,320.56,768.63,323.78Z" fill="#048eae"/></g><g opacity="0.3"><path d="M890.53,565.56H875.26s-4.77-166.92,15.26-218.43h3.82S881,536,890.53,565.56Z" fill="#048eae"/><path d="M880,338.56s-12.4,34.34-6.68,49.6c0,0,8.58-31.48,18.6-36.25s20.51,36.25,20.51,36.25,5.72-25.75-4.77-46.74c0,0,21,11.45,31.48,33.38,0,0,1.91-14.31-22.89-43.88,0,0,21.94,5.72,36.25,19.08,0,0,4.77-10.49-24.8-27.66,0,0,3.82-12.4,26.71-6.68,0,0,0-16.22-36.25-13.35,0,0,0-10.49,23.85-8.58,0,0,0-13.35-27.66-8.58,0,0,5.72-8.58,9.54-10.49,0,0-7.63-1-13.35,3.82,0,0,1-17.17-13.35-23.85l-1.91,23.85s-16-18.89-12.4-15.26c1,1,3.82,12.4,2.86,18.12,0,0-16.22-13.35-36.25,1,0,0,24.8,1.91,28.62,10.49,0,0-21-3.82-25.75-1,0,0,16.22,5.72,15.26,9.54,0,0-28.62,0-32.43,10.49,0,0,29.57,3.82,31.48,6.68,0,0-34.34,24.8-36.25,31.48,0,0,35.29-21,41-21s-25.76,30.54-23.85,38.14C847.6,367.16,873.36,336.64,880,338.56Z" fill="#048eae"/></g></g></g><path d="M753.26,89h-1.32a3.27,3.27,0,0,0,1.61-2.62h0c0-2.07-2.53-3.76-5.63-3.76H708.51c-3.1,0-5.63,1.69-5.63,3.76h0c0,2.06,2.53,3.75,5.63,3.75h1.31a3.27,3.27,0,0,0-1.6,2.62c0,1.77,1.84,3.25,4.3,3.65H701.17c-3.09,0-5.62,1.69-5.62,3.76s2.53,3.75,5.62,3.75h39.41c3.09,0,5.63-1.69,5.63-3.75,0-1.76-1.85-3.25-4.31-3.65h11.35c3.09,0,5.62-1.69,5.62-3.76S756.35,89,753.26,89Z" fill="#048eae" opacity="0.1" style="isolation:isolate"/><path d="M121.4,649.49s7.14,9.33-3.29,23.42-19,26-15.55,34.76c0,0,15.73-26.16,28.54-26.53S135.49,665.23,121.4,649.49Z" fill="#048eae"/><path d="M121.4,649.49a12,12,0,0,1,1.46,2.93C135.36,667.1,142,680.8,130,681.14c-11.18.32-24.61,20.33-27.82,25.38a11.06,11.06,0,0,0,.38,1.15s15.73-26.16,28.54-26.53S135.49,665.23,121.4,649.49Z" opacity="0.1" style="isolation:isolate"/><path d="M134.67,661.39c0,3.28-.37,5.94-.82,5.94s-.83-2.66-.83-5.94.46-1.74.92-1.74S134.67,658.1,134.67,661.39Z" fill="#ffd037"/><path d="M139.22,665.3c-2.88,1.57-5.4,2.52-5.61,2.12s1.94-2,4.82-3.57,1.75-.43,2,0S142.1,663.73,139.22,665.3Z" fill="#ffd037"/><path d="M83.72,649.49s-7.14,9.33,3.29,23.42,19,26,15.55,34.76c0,0-15.73-26.16-28.54-26.53S69.63,665.23,83.72,649.49Z" fill="#048eae"/><path d="M83.72,649.49a12,12,0,0,0-1.46,2.93c-12.5,14.68-19.15,28.38-7.14,28.72,11.19.32,24.61,20.33,27.82,25.38a9.11,9.11,0,0,1-.38,1.15S86.83,681.51,74,681.14,69.63,665.23,83.72,649.49Z" opacity="0.1" style="isolation:isolate"/><path d="M70.45,661.39c0,3.28.37,5.94.83,5.94s.82-2.66.82-5.94-.46-1.74-.92-1.74S70.45,658.1,70.45,661.39Z" fill="#ffd037"/><path d="M65.9,665.3c2.88,1.57,5.4,2.52,5.62,2.12s-2-2-4.83-3.57-1.75-.43-2,0S63,663.73,65.9,665.3Z" fill="#ffd037"/><ellipse cx="884.56" cy="789.35" rx="74.6" ry="11.45" fill="#048eae" opacity="0.1" style="isolation:isolate"/><ellipse cx="102.56" cy="767.6" rx="74.6" ry="11.45" fill="#048eae" opacity="0.1" style="isolation:isolate"/><ellipse cx="192.56" cy="812.24" rx="41.4" ry="6.35" fill="#048eae" opacity="0.1" style="isolation:isolate"/><path d="M141,695.1,140.6,698l-.5,4.11-.21,1.72-.5,4.12-.22,1.71-.5,4.12L133,760.58c-.51,4.18-7.33,7.44-15.57,7.44H87.73c-8.24,0-15-3.26-15.56-7.44l-5.72-46.79-.5-4.12L65.74,708l-.51-4.12L65,702.12l-.5-4.11-.36-2.91c-.28-2.37,3.41-4.36,8.07-4.36H132.9C137.58,690.74,141.25,692.73,141,695.1Z" fill="#65617d"/><polygon points="140.6 698.01 140.1 702.12 65.02 702.12 64.52 698.01 140.6 698.01" fill="#9d9cb5"/><polygon points="139.89 703.84 139.39 707.96 65.74 707.96 65.23 703.84 139.89 703.84" fill="#9d9cb5"/><polygon points="139.17 709.67 138.67 713.79 66.45 713.79 65.95 709.67 139.17 709.67" fill="#9d9cb5"/><rect x="415.96" y="120.21" width="22.63" height="44.39" rx="1.41" ry="1.41" fill="#30567a"/><path d="M418.86,149.34l-9.42,4.6,9.42-1.38h10v3.91l-10,2.3-8.27,1.83,5.29,1.39,8.61-.69v3L415,168.2l-2.08,9.88-5.16,6s-4.25-1.44-7.93-9-.92-26.9-.92-26.9a86.13,86.13,0,0,0,6.2-7.23c2.07-2.88,11.5-5.64,11.5-5.64l12.64-.8.7,3.45-11.05,1.49L410,146l8.84-2.7,13-.57-1,5.28Z" fill="#efb7b9"/><path d="M435,268.32s11-7.84,6.31-26.23c-3.56-14-18.91-48.23-22.88-68.49H398.74s8.28,39.65,11.69,60S421.64,272.77,435,268.32Z" fill="#a36468"/><ellipse cx="489.58" cy="746.12" rx="303.97" ry="46.65" fill="#048eae" opacity="0.1" style="isolation:isolate"/><path d="M523,126.15c-3.18,1.87-3.28,9.86-2.79,16.27.35,4.69,1,8.53,1,8.53l-20.69,50.3s-7.67-35.84-7.79-51.84a11.75,11.75,0,0,1,.57-3.72C497,134.16,517.25,127.72,523,126.15Z" fill="#67647e"/><path d="M524.55,125.72s-.56.13-1.53.4A3.12,3.12,0,0,1,524.55,125.72Z" fill="#67647e"/><path d="M517.38,738.08l-8.33,6s-5.17,0-5.17,4.67-12.66,9.33-12.66,9.33-18.84,5.33-33.34,0c-4.7-1.73-6.14-4.69-5.59-8.3,1.15-7.53,11-17.82,18.09-25.37,4.79-5.09,7-11.84,7.94-17.68a53,53,0,0,0,.56-12.65l30.5-2.17a20.1,20.1,0,0,0,0,14.29,18.12,18.12,0,0,0,2.67,4.58c3.72,4.72,5,12.13,5.36,18A65.6,65.6,0,0,1,517.38,738.08Z" fill="#67647e"/><path d="M580.05,751.91s-2.33,7-24.17,9.34-18.71-13.84-18.71-13.84-.11-.46-.25-1.29a49.64,49.64,0,0,1-.08-16.54c.76-4.26.1-11.65-.85-18.42-1.12-8.06-2.65-15.25-2.65-15.25l33.84,2.5s.59,6.89.93,13.85c.11,2.17.2,4.34.23,6.32a15.79,15.79,0,0,0,2.92,8.35,52.42,52.42,0,0,1,8.08,19.6,45.25,45.25,0,0,1,.62,4.76C580,751.72,580.05,751.91,580.05,751.91Z" fill="#67647e"/><path d="M517.38,738.08l-8.33,6s-5.17,0-5.17,4.67-12.66,9.33-12.66,9.33-18.84,5.33-33.34,0c-4.7-1.73-6.14-4.69-5.59-8.3.45,0,.88.06,1.24.07,5.94.19,11.72,1.79,17.63,2.32a87.6,87.6,0,0,0,10.12.16,35,35,0,0,0,5-.39c4-.71,7.71-2.78,11.28-4.81a6.44,6.44,0,0,0,2.25-1.76,8.5,8.5,0,0,0,1-2.68c1.26-4.52,4.78-8.14,8.82-10.52a38.46,38.46,0,0,1,7.77-3.35A66.55,66.55,0,0,1,517.38,738.08Z" fill="#67647e"/><path d="M580.05,751.91s-2.33,7-24.17,9.34-18.71-13.84-18.71-13.84-.11-.46-.25-1.29c1,.52,1.85,1,2.24,1.22,2,1.17,3.79,2.78,5.87,3.87,5,2.63,11.05,1.85,16.64,1,2.65-.4,5.3-.8,7.94-1.29a19.74,19.74,0,0,0,5.81-1.72,34.2,34.2,0,0,0,3.92-2.66,45.25,45.25,0,0,1,.62,4.76C580,751.72,580.05,751.91,580.05,751.91Z" fill="#67647e"/><path d="M517.38,738.08l-8.33,6s-5.17,0-5.17,4.67-12.66,9.33-12.66,9.33-18.84,5.33-33.34,0c-4.7-1.73-6.14-4.69-5.59-8.3.45,0,.88.06,1.24.07,5.94.19,11.72,1.79,17.63,2.32a87.6,87.6,0,0,0,10.12.16,35,35,0,0,0,5-.39c4-.71,7.71-2.78,11.28-4.81a6.44,6.44,0,0,0,2.25-1.76,8.5,8.5,0,0,0,1-2.68c1.26-4.52,4.78-8.14,8.82-10.52a38.46,38.46,0,0,1,7.77-3.35A66.55,66.55,0,0,1,517.38,738.08Z" opacity="0.1" style="isolation:isolate"/><path d="M580.05,751.91s-2.33,7-24.17,9.34-18.71-13.84-18.71-13.84-.11-.46-.25-1.29c1,.52,1.85,1,2.24,1.22,2,1.17,3.79,2.78,5.87,3.87,5,2.63,11.05,1.85,16.64,1,2.65-.4,5.3-.8,7.94-1.29a19.74,19.74,0,0,0,5.81-1.72,34.2,34.2,0,0,0,3.92-2.66,45.25,45.25,0,0,1,.62,4.76C580,751.72,580.05,751.91,580.05,751.91Z" opacity="0.1" style="isolation:isolate"/><path d="M509.38,691.91a20.1,20.1,0,0,0,0,14.29c-8.75,1.49-25.06,4.5-31.06.53a53,53,0,0,0,.56-12.65Z" opacity="0.1" style="isolation:isolate"/><path d="M568.17,712.26c-6.18.44-22.81,1.31-32.12-1.1-1.12-8.06-2.65-15.25-2.65-15.25l33.84,2.5S567.81,705.3,568.17,712.26Z" opacity="0.1" style="isolation:isolate"/><path d="M592.55,479.08s-.52,6.25-1.35,15c-1.87,19.86-5.32,52.65-8,55.32-3.84,3.85-2.17,32.15-.67,37.15s0,41,0,41a182.91,182.91,0,0,0-5.5,46c.5,24-6.5,36.5-6.5,36.5s-33,3-39.83-3.38,0-57.12,0-57.12,12.33-41.5,9.33-47.5-6.5-20.5-6.5-20.5v-50.5c-4.85-8-7-19-7.93-28.94a151.5,151.5,0,0,1-.07-25.56s-6.21,12.7-12.54,25.26c-5.72,11.35-11.54,22.58-13,24.24-3,3.5-.5,19.5,0,27.5s-5.5,24-5.5,24c7.5,4.5,9,57.5,9,57.5s-5.5,13,6,27.5,7,42,5.5,41-32,7.5-38,0-12.5-28-12.5-28,3-21-3.5-40c-4.82-14.08-10.73-47.09-13.47-63.26a64.43,64.43,0,0,1-.54-17.76c1.26-11.81,3.2-33.67,2.51-51-.23-5.65-.07-14.63.31-25.16C451.09,442.27,455,388,455,388l27.18-18.31,17.9-12.14,4.38.67,81.62,12.57,3.17,40.26Z" fill="#444053"/><path d="M482.17,369.72l-1.43,7.86s-12,57.5-14.5,87-13,21-13,21a47.63,47.63,0,0,0-3.36-7.16c1.29-36.1,5.19-90.34,5.19-90.34Z" opacity="0.1" style="isolation:isolate"/><path d="M567.88,151.58s-56,44.83-45.66,35.83c5.66-4.94,1.81-26-2.83-44-3.82-14.85-8.17-27.63-8.17-27.63s48.88-45.73,45.33-8.34c-1.25,13.18-.21,22.55,1.66,29.17C561.64,148.72,567.88,151.58,567.88,151.58Z" fill="#efb7b9"/><path d="M563.22,139.66l-35.5,27.75-10.34-11.5s-8.83-3.83-9.5.5-3.16,31,2,33.5,11.84,4.17,17.67,3.34,12.33-7.34,16.67-9.84,20.33-15.5,20.33-15.5l8-11.16Z" opacity="0.1" style="isolation:isolate"/><path d="M563.22,140.66l-35.5,27.75-10.34-11.5s-8.83-3.83-9.5.5-3.16,31,2,33.5,11.84,4.17,17.67,3.34,12.33-7.34,16.67-9.84,20.33-15.5,20.33-15.5l8-11.16Z" fill="#a36468"/><path d="M592.55,479.08s-.52,6.25-1.35,15c-11,.42-32.34,1.72-47.32,5.64a82.07,82.07,0,0,1-18.26,2.39,151.5,151.5,0,0,1-.07-25.56s-6.21,12.7-12.54,25.26a130.57,130.57,0,0,1-16.13-2.09l6.67-86.67s-.22-29.09.88-54.83l81.62,12.57,3.17,40.26Z" opacity="0.1" style="isolation:isolate"/><path d="M531.22,165.08s24.25-26.51,30-22.3,9.47,14.47,9.47,14.47L551,178.91Z" opacity="0.1" style="isolation:isolate"/><path d="M532.22,164.08s24.25-26.51,30-22.3,9.47,14.47,9.47,14.47L552,177.91Z" fill="#a36468"/><path d="M512.11,181.07l13.94-17.55s-2.21-16.59-7.32-14.47-6.62,10.61-6.62,10.61Z" opacity="0.1" style="isolation:isolate"/><path d="M511.05,179.91,525,162.36s-2.2-16.59-7.32-14.47-6.62,10.61-6.62,10.61Z" fill="#a36468"/><path d="M575.22,148.41s-28.71,31-45.85,33.08c-1.56.19-3.1.45-4.64.76-4.47.88-14.23,0-12.68-25.63l-2.17-4.54-13.33,8.17-4.5,36.66-8,94L472.22,395.58s36.33-3.5,46.5,5.67,13-50,13-50l27.83-120,29.67-77.17Z" opacity="0.1" style="isolation:isolate"/><path d="M589.22,158.08l-29.67,77.17-27.83,120s-2.84,59.16-13,50c-3.32-3-9.44-4.64-16.17-5.49a147.12,147.12,0,0,0-24.92-.56c-3.32.18-5.41.38-5.41.38l11.83-104.67,8-94,4.5-36.66,13.33-8.17,2.17,4.54c0,.67-.07,1.33-.1,2-.94,23.68,8.43,24.52,12.78,23.66,1.54-.31,3.08-.57,4.64-.76,12.14-1.49,30.08-17.46,39.51-26.64,3.89-3.8,6.34-6.44,6.34-6.44Z" opacity="0.1" style="isolation:isolate"/><path d="M589.22,155.08l-29.67,77.17-27.83,120s-2.84,59.16-13,50c-3.32-3-9.44-4.64-16.17-5.49a147.12,147.12,0,0,0-24.92-.56c-3.32.18-5.41.38-5.41.38l11.83-104.67,8-94,4.5-36.66,13.33-8.17,2.17,4.54c0,.67-.07,1.33-.1,2-.94,23.68,8.43,24.52,12.78,23.66,1.54-.31,3.08-.57,4.64-.76,12.14-1.49,30.08-17.46,39.51-26.64,3.89-3.8,6.34-6.44,6.34-6.44Z" fill="#e1e7ef"/><path d="M512.05,157.62c0,.67-.07,1.33-.1,2l-.23.16c-3.52,2.32-9.17,41.5-9.17,41.5l-7.33,99.83-13.5,74.5s-1.77,8.49-4.09,20.62c-3.32.18-5.41.38-5.41.38l11.83-104.67,8-94,4.5-36.66,13.33-8.17Z" opacity="0.1" style="isolation:isolate"/><path d="M521.24,151s-8,6.48-11.52,8.8-9.17,41.5-9.17,41.5l-7.33,99.83-13.5,74.5s-12,57.5-14.5,87-13,21-13,21-7.84-23-26.5-24.33-9-11.84-9-11.84,10.93-78.77,18.12-92.8a6.8,6.8,0,0,1,.38-.7c1.06-1.74,2.23-5.21,3.46-9.85,7.11-26.84,16.2-93,16.2-93l5.67-82c14.5-23.67,59.56-22.85,59.56-22.85Z" fill="#67647e"/><path d="M589.22,155.08l-29.67,77.17-27.83,120s-2.84,59.16-13,50c-3.32-3-9.44-4.64-16.17-5.49.12-20.34.74-56.84,3.67-72.18a204.47,204.47,0,0,0,3.16-42.5l36.34-79.17s27.33-33.69,27.5-38.51c.06-1.78-1.88-5.08-4.34-8.55,3.89-3.8,6.34-6.44,6.34-6.44Z" opacity="0.1" style="isolation:isolate"/><path d="M497.88,497.72l6.67-86.67s-.5-64.67,3.67-86.5a204.47,204.47,0,0,0,3.16-42.5l36.34-79.17s27.33-33.69,27.5-38.51-14.32-20.85-14.32-20.85,31.65,3.7,35.82,17.86,27,19.67,27,19.67,11,10,10.83,38.67-35,51.16-35,51.16-5.83,54-.83,78.34.66,142.66.66,142.66-33.5.34-54.5,5.84S497.88,497.72,497.88,497.72Z" fill="#67647e"/><path d="M547.22,360.25l25.66,97.16s3.5,8.67,21.5,2,70.34-28.33,70.34-28.33,4.66-7.67-4-21.83l-26.17-76.67Z" fill="#b07473"/><polygon points="580.43 403.21 621.93 357.58 648.43 346.83 659.3 401.7 608.93 456.45 580.43 403.21" fill="#e1e7ef"/><path d="M624.77,418.46s-12.34,7.26-15.6,7.5-14.73,21.92-9.88,21.75,16.13-6,15-3-8.49,12-10.62,11.14-3.13,6.61,6,4S630.92,455,630.92,455s6.5-4.75,6.75-8.13,5.88-21.13,5.88-21.13Z" fill="#efb7b9"/><path d="M648.83,419.61A69.42,69.42,0,0,1,643.17,433c-2.5-2.26-26.37-10.13-26.37-10.13l2.65-4.09,4.32-6.66s21.28-4.62,24.9,0C649.89,413.63,649.67,416.49,648.83,419.61Z" opacity="0.1" style="isolation:isolate"/><path d="M649.83,418.61A69.42,69.42,0,0,1,644.17,432c-2.5-2.26-26.37-10.13-26.37-10.13l2.65-4.09,4.32-6.66s21.28-4.62,24.9,0C650.89,412.63,650.67,415.49,649.83,418.61Z" fill="#a36468"/><polygon points="578.3 352.08 575.38 343.33 616.36 340.45 601.05 342.08 581.55 346.27 583.05 352.08 578.3 352.08" fill="#b07473"/><path d="M649.83,418.61c-4.52-2.13-16.58-6.56-29.38-.87l4.32-6.66s21.28-4.62,24.9,0C650.89,412.63,650.67,415.49,649.83,418.61Z" opacity="0.1" style="isolation:isolate"/><path d="M652.22,364.58c-.1,1.45-.19,2.9-.28,4.34-.25,4.41-.42,8.78-.53,13-.5,19.54.31,35.66.31,35.66s-15.5-9.33-32-1.5l-1.64-31.62v-.55l-1.69-13.83-5.48-44.67s-10.33-62-13.5-64.33,23.5-52.5,23.5-52.5l13.64,11.14,8.5,57.33v29.33S654.05,338.25,652.22,364.58Z" fill="#67647e"/><path d="M550,121.08s35.41-10.67,55.41,27.83,20.67,41.17,19.67,43-39.83-8.33-42-3.83,22,23,22,23l-93.67,71,39.36-83.64a63.19,63.19,0,0,1,10.43-16.07c6.47-7.24,15.32-18.33,12.18-21.75-2.76-3-7.17-10.83-13.13-19.84C555.88,134.18,549,126.72,550,121.08Z" opacity="0.2" style="isolation:isolate"/><path d="M549,120.08s35.41-10.67,55.41,27.83,20.67,41.17,19.67,43-39.83-8.33-42-3.83,22,23,22,23l-92.67,72,38.36-84.64a63.19,63.19,0,0,1,10.43-16.07c6.47-7.24,15.32-18.33,12.18-21.75-2.76-3-7.17-10.83-13.13-19.84C554.88,133.18,548,125.72,549,120.08Z" fill="#67647e"/><path d="M549,120.08s35.41-10.67,55.41,27.83,20.67,41.17,19.67,43-39.83-8.33-42-3.83,22,23,22,23l-92.67,72,40.2-88.71a35.31,35.31,0,0,1,6.23-9.39c6.34-6.82,18.12-20.49,14.57-24.36-2.76-3-7.17-10.83-13.13-19.84C554.88,133.18,548,125.72,549,120.08Z" opacity="0.1" style="isolation:isolate"/><circle cx="556.22" cy="289.25" r="7.33" fill="#444053"/><circle cx="556.22" cy="334.75" r="7.33" fill="#444053"/><path d="M651.41,381.92c-4.22,1-24.23.55-33.33,2.54v-.55l-1.69-13.83c10.26-1.28,32.56-3.71,35.58-1.16C655.88,372.25,656.44,380.77,651.41,381.92Z" fill="#67647e"/><path d="M651.41,382.92c-4.22,1-24.23.55-33.33,2.54v-.55l-1.69-13.83c10.26-1.28,32.56-3.71,35.58-1.16C655.88,373.25,656.44,381.77,651.41,382.92Z" opacity="0.1" style="isolation:isolate"/><path d="M651.41,381.92c-4.22,1-24.23.55-33.33,2.54v-.55l-1.69-13.83c10.26-1.28,32.56-3.71,35.58-1.16C655.88,372.25,656.44,380.77,651.41,381.92Z" opacity="0.1" style="isolation:isolate"/><circle cx="647.05" cy="375.25" r="4.42" fill="#444053"/><path d="M563.55,392.91l18.67,63.67s5,2.33,5-1.83S563.55,392.91,563.55,392.91Z" fill="#fff" opacity="0.1" style="isolation:isolate"/><path d="M556.38,133.49a38,38,0,0,1-3.69,2.63c-6.35,4-12,9.43-20.09,9.43a40.65,40.65,0,0,1-13.21-2.17c-3.82-14.85-8.17-27.63-8.17-27.63S560.1,70,556.55,107.41C555.3,120.59,554.51,126.87,556.38,133.49Z" opacity="0.1" style="isolation:isolate"/><path d="M573.66,102.49A41.06,41.06,0,1,1,532.6,61.43h0a40.88,40.88,0,0,1,41.06,40.68Z" fill="#efb7b9"/><path d="M573.66,102.49a40.91,40.91,0,0,1-3.82,17.31,23.09,23.09,0,0,0-5.52,8.76c-2.78,3.38-3.88,5.29-7.59,7.63-1.49-1.57-4.84-2.52-5.45-4.55-1.55-5.23-.67-10.82-.59-16.27,0-2.42-.34-5.28-2.47-6.44-1.77-1-4-.28-5.74.7s-3.47,2.25-5.47,2.48c-3,.34-5.74-1.77-7.42-4.25s-2.65-5.38-4.24-7.92c-2.1-3.35-5.2-5.92-8.25-8.42-3.49-2.88-6.88-6.07-10.6-8.65-2.22-1.55-4.88-2.27-7.07-3.83l-.35-.26a41.06,41.06,0,0,1,74.58,23.71Z" opacity="0.1" style="isolation:isolate"/><path d="M492.76,57.11c.87-5.77,5.63-11.18,11.46-11.28,4.81-.08,8.91,3.18,13.17,5.41a33.26,33.26,0,0,0,28.36,1c2.62-1.14,5.27-2.67,8.12-2.44s5.13,2.1,7.1,4a47.51,47.51,0,0,1,10.77,16.3c.71,1.8,1.36,3.72,2.74,5.07a18.14,18.14,0,0,0,3.42,2.27A18.8,18.8,0,0,1,586,89.61a26.83,26.83,0,0,1-1.47,14.75,22.44,22.44,0,0,1-5.34,8.56c-1.82,1.71-4,3-5.91,4.6a23.61,23.61,0,0,0-8,21.88c-5.32,1.23-10.42-3.54-12-8.76s-.67-10.82-.59-16.27c0-2.42-.34-5.28-2.47-6.44-1.77-1-4-.28-5.74.7s-3.47,2.25-5.47,2.48c-3,.34-5.74-1.76-7.42-4.25s-2.64-5.38-4.24-7.92c-2.09-3.35-5.2-5.92-8.25-8.42-3.49-2.87-6.88-6.07-10.59-8.65-2.23-1.55-4.89-2.27-7.08-3.83C494.8,73.3,492.76,64.66,492.76,57.11Z" fill="#585268"/><path d="M524.55,125.72s-.56.13-1.53.4A3.12,3.12,0,0,1,524.55,125.72Z" opacity="0.1" style="isolation:isolate"/><g opacity="0.1"><path d="M555.28,127.37c-1.55-5.23-.67-10.82-.59-16.27,0-2.42-.34-5.28-2.47-6.44-1.77-1-4-.27-5.74.7s-3.47,2.25-5.47,2.48c-3,.34-5.74-1.76-7.42-4.24s-2.64-5.39-4.24-7.93c-2.1-3.34-5.2-5.91-8.25-8.42-3.49-2.87-6.88-6.07-10.59-8.65-2.23-1.55-4.89-2.26-7.08-3.83-6.63-4.74-8.67-13.38-8.67-20.93a14,14,0,0,1,1.32-4.12,14.42,14.42,0,0,0-3.32,7.16c0,7.55,2,16.19,8.67,20.93,2.19,1.57,4.85,2.28,7.08,3.83,3.71,2.58,7.1,5.78,10.59,8.65,3,2.51,6.15,5.08,8.25,8.42,1.6,2.54,2.55,5.45,4.24,7.93s4.44,4.58,7.42,4.24c2-.23,3.7-1.51,5.47-2.48s4-1.66,5.74-.7c2.13,1.16,2.51,4,2.47,6.44-.08,5.45-1,11,.59,16.27s6.66,10,12,8.76a22.43,22.43,0,0,1-.32-2.84C560.52,135.94,556.61,131.83,555.28,127.37Z"/><path d="M581.17,109.65c-1.82,1.72-4,3-5.91,4.6a22.58,22.58,0,0,0-5.21,6.3,21.32,21.32,0,0,1,3.21-3.3c1.92-1.6,4.09-2.88,5.91-4.6a19.71,19.71,0,0,0,3.64-4.78A17.29,17.29,0,0,1,581.17,109.65Z"/></g><path d="M525.91,466.61c-.73,2.17-1.77,4.29-1.91,6.58-.24,3.9,2.14,7.52,2.31,11.43.2,4.53-2.56,8.6-5.2,12.3,3.13,0,6.55-1.09,8.14-3.78a12.65,12.65,0,0,0,1.17-3.29c2.83-11.29,5.58-23.64.66-34.18a15.56,15.56,0,0,0-3.25-4.88C527,456.11,527.7,461.34,525.91,466.61Z" opacity="0.1" style="isolation:isolate"/><path d="M447.69,386.93l-8.31-11.21c-2-2.71-4.07-5.53-4.79-8.82-.78-3.61.13-7.35.25-11v-1.25a6.8,6.8,0,0,1,.38-.7c1.06-1.74,2.23-5.21,3.46-9.85a12.19,12.19,0,0,1,2.76,4.25c3.87,9.44.29,20.52,3.49,30.2C445.85,381.33,447.35,384,447.69,386.93Z" opacity="0.1" style="isolation:isolate"/><path d="M468.84,726.27A35.44,35.44,0,0,0,497.58,732" opacity="0.1" style="isolation:isolate"/><path d="M537.7,727.92a21.06,21.06,0,0,0,29.77-1c.31-.33.61-.67.9-1" opacity="0.1" style="isolation:isolate"/><path d="M493.82,577.17A18.91,18.91,0,0,1,473.05,568" opacity="0.1" style="isolation:isolate"/><path d="M541.22,602.44a27.59,27.59,0,0,0,17.85-4.9" opacity="0.1" style="isolation:isolate"/><path d="M508.87,662.84c-5.33,2.16-10.09,5.54-15.28,8s-11.2,4.07-16.69,2.35" opacity="0.1" style="isolation:isolate"/><rect x="405.54" y="367.01" width="6.25" height="190.8" fill="#9d9cb5"/><rect x="424.95" y="367.01" width="6.26" height="190.8" fill="#9d9cb5"/><circle cx="391.71" cy="743.48" r="10.69" fill="#535461"/><path d="M353.88,549s10.66-8.67,20-5.67,33.66,6,38,21.33,0,183.67,0,183.67-20.71,5.38-26.34,2.67-5-28-5-28l-1.66-149.29Z" fill="#048eae"/><path d="M353.88,549s10.66-8.67,20-5.67,33.66,6,38,21.33,0,183.67,0,183.67-20.71,5.38-26.34,2.67-5-28-5-28l-1.66-149.29Z" opacity="0.1" style="isolation:isolate"/><path d="M450.88,739.72l-44.87,10-.47-8-.29-157.07a47.89,47.89,0,0,0-18.78-37.93h0s23.23-.31,41,7.72c3.8,1.71,7.61,3.39,11.52,4.83,4.85,1.79,11.43,5.6,11.85,13.12.54,9.8,2.42,106.88,3.09,142.22A89.77,89.77,0,0,1,450.88,739.72Z" fill="#048eae"/><rect x="402.63" y="352.84" width="10.42" height="16.33" fill="#535461"/><rect x="402.63" y="352.84" width="10.42" height="16.33" opacity="0.1" style="isolation:isolate"/><rect x="422.21" y="355.42" width="10.42" height="16.33" fill="#535461"/><path d="M432.62,355.42H422.17A10.37,10.37,0,0,0,413,361.5c-.15.32-.29.65-.42,1l-2.3-2.22-4.78-4.62-2.92-2.82S421.87,343.09,432.62,355.42Z" fill="#535461"/><circle cx="437.17" cy="751.01" r="10.69" fill="#535461"/><circle cx="326.79" cy="736.42" r="10.69" fill="#535461"/><path d="M346.88,546.72s-30.34,8-32,84.34-2,84.33-2,84.33.66,22,45.33,35.67h27.33l4.34-175.34S384.88,549,346.88,546.72Z" fill="#048eae"/><path d="M344.17,665s-7.77-106.74,34.12-107.2l3.93,3.82S345.54,548.34,344.17,665Z" opacity="0.1" style="isolation:isolate"/><circle cx="363.04" cy="760.33" r="10.69" fill="#535461"/><path d="M422.32,355.36v.06h-.15A10.37,10.37,0,0,0,413,361.5c-.15.32-.29.65-.42,1l-2.3-2.22a2.91,2.91,0,0,1,0-.59,6,6,0,0,1,2.26-3.93,9,9,0,0,1,8.69-1.57C421.82,354.38,422.43,354.8,422.32,355.36Z" opacity="0.1" style="isolation:isolate"/><path d="M469.94,159.32a32.7,32.7,0,0,0-22.55,19.26c-4.89,11.89-14.21,46.73-20,68.55a168.62,168.62,0,0,0,13.45,30.69,8.26,8.26,0,0,0,.92-.4c9.76-5.2,19.63-59.46,22.24-63.06s18.46-30.47,18.46-30.47Z" fill="#67647e"/><path d="M440.88,278.4s12.82-7.84,7.36-26.22c-4.15-14-22.06-48.23-26.7-68.5H398.63s9.66,39.66,13.64,60S425.34,282.85,440.88,278.4Z" fill="#67647e"/></g></g></svg>